# xmcd
#
# Track frame offsets:
#	150
#	13776
#	26566
#	44006
#	58357
#	75355
#	90684
#	107422
#	124757
#	140833
#	153409
#	175156
#	188816
#	204907
#	214471
#	226672
#	244940
#	256921
#	271799
#	288255
#
# Disc length: 4087 seconds
#
# Revision: 0
# Processed by: cddbd v1.5.2PL0 Copyright (c) Steve Scherf et al.
# Submitted via: EasyCDDAExtractor 16.0.8.2
#
DISCID=180ff514
DTITLE=Συλλογικός δίσκος - Άρωμα Σμύρνης 2
DYEAR=2004
DGENRE=Παραδοσιακή
TTITLE0=Ζυγομαλάς Χρήστος-χορωδία - Τι σε μέλει εσένα
TTITLE1=Ανδρέου Χριστίνα-χορωδία - Τίκι τίκι τακ
TTITLE2=Ζυγομαλάς Χρήστος - Ήθελα να 'ρθώ ένα βράδυ
TTITLE3=Άνευ ερμηνευτού - Συρτός ασιζιέ [παραδοσιακό]
TTITLE4=Τσέρτος Μπάμπης - Όταν σε βλέπω και έρχεσαι [παραδοσιακό]
TTITLE5=Ιακωβίδης Αγάθωνας - Του ψαρά ο γιος [Δημ. Γεωργιάδης]
TTITLE6=Άνευ ερμηνευτού - Αϊβαλιώτικο [παραδοσιακό]
TTITLE7=Βουτυράς Κώστας - Το κουτσαβάκι [παραδοσιακό]
TTITLE8=Κατσάρης Γιώργος - Σμυρνιά [παραδοσιακό]
TTITLE9=Μαμμάση Αλεξάνδρα - Σκερτσοπεταχτό [παραδοσιακό]
TTITLE10=Άνευ ερμηνευτού - Σ' αγαπώ γιατί είσαι ωραία [παραδοσιακό]
TTITLE11=Μπαγιώκης Γιώργος - Σύρε να πεις στη μάνα σου [παραδοσιακό]
TTITLE12=Μανωλοπούλου Σταυρούλα - Μήλο μου και μανταρίνι [παραδοσιακό]
TTITLE13=Άνευ ερμηνευτού - Σε ξέχασα, δεν σε πονώ [Κ. Σκαρβέλλης]
TTITLE14=Βουτυράς Κώστας - Σμυρνιά μου το φακιόλι σου [παραδοσιακό]
TTITLE15=Βαρδαδούκα Μαριάννα - Τα παιδιά της γειτονιάς σου [παραδοσιακό]
TTITLE16=Βουτυράς Κώστας - Μπουρνόβας [παραδοσιακό]
TTITLE17=Άνευ ερμηνευτού - Πέργαμος [παραδοσιακό]
TTITLE18=Σαραγούδα Γιασεμή - Μόρτισσα [Αντ. Διαμαντίδης ή Νταλκάς]
TTITLE19=Βιδάλης Γιώργος - Πολίτισσα καμωματού [παραδ., 1919]
EXTD=
EXTT0=
EXTT1=
EXTT2=
EXTT3=
EXTT4=
EXTT5=
EXTT6=
EXTT7=
EXTT8=
EXTT9=
EXTT10=
EXTT11=
EXTT12=
EXTT13=
EXTT14=
EXTT15=
EXTT16=
EXTT17=
EXTT18=
EXTT19=
PLAYORDER=
